<?xml version="1.0" encoding="UTF-8" standalone="no"?>
<!-- Created with Inkscape (http://www.inkscape.org/) -->

<svg
   xmlns:dc="http://purl.org/dc/elements/1.1/"
   xmlns:cc="http://creativecommons.org/ns#"
   xmlns:rdf="http://www.w3.org/1999/02/22-rdf-syntax-ns#"
   xmlns:svg="http://www.w3.org/2000/svg"
   xmlns="http://www.w3.org/2000/svg"
   xmlns:sodipodi="http://sodipodi.sourceforge.net/DTD/sodipodi-0.dtd"
   xmlns:inkscape="http://www.inkscape.org/namespaces/inkscape"
   width="200"
   height="200"
   viewBox="0 0 52.916666 52.916668"
   version="1.1"
   id="svg8"
   inkscape:version="0.92.2 (5c3e80d, 2017-08-06)"
   sodipodi:docname="Glifo-A.svg">
  <defs
     id="defs2" />
  <sodipodi:namedview
     id="base"
     pagecolor="#ffffff"
     bordercolor="#666666"
     borderopacity="1.0"
     inkscape:pageopacity="0.0"
     inkscape:pageshadow="2"
     inkscape:zoom="1.4142136"
     inkscape:cx="64.416063"
     inkscape:cy="8.0322041"
     inkscape:document-units="px"
     inkscape:current-layer="layer1"
     showgrid="false"
     inkscape:showpageshadow="false"
     units="px"
     inkscape:window-width="1600"
     inkscape:window-height="837"
     inkscape:window-x="-8"
     inkscape:window-y="-8"
     inkscape:window-maximized="1"
     inkscape:snap-bbox="true"
     inkscape:bbox-paths="false"
     inkscape:bbox-nodes="true"
     inkscape:snap-bbox-edge-midpoints="false"
     inkscape:snap-bbox-midpoints="false"
     inkscape:object-paths="false"
     inkscape:snap-intersection-paths="false"
     inkscape:snap-smooth-nodes="true"
     inkscape:snap-global="true"
     inkscape:snap-midpoints="false">
    <inkscape:grid
       type="xygrid"
       id="grid815"
       empspacing="8" />
  </sodipodi:namedview>
  <metadata
     id="metadata5">
    <rdf:RDF>
      <cc:Work
         rdf:about="">
        <dc:format>image/svg+xml</dc:format>
        <dc:type
           rdf:resource="http://purl.org/dc/dcmitype/StillImage" />
        <dc:title></dc:title>
      </cc:Work>
    </rdf:RDF>
  </metadata>
  <g
     inkscape:label="Capa 1"
     inkscape:groupmode="layer"
     id="layer1"
     transform="translate(0,-244.08332)">
    <path
       style="opacity:0.78500001;fill:#000000;fill-opacity:1;stroke:none;stroke-width:0.26906502;stroke-linecap:round;stroke-miterlimit:4;stroke-dasharray:none;stroke-dashoffset:0;stroke-opacity:1"
       d="m 25.350389,245.98554 c -2.4229,0.008 -6.66901,0.3952 -6.608897,3.64939 0.04667,2.52569 5.940205,4.67724 5.940205,4.67724 l -0.09353,0.60823 0.701767,0.42064 0.04651,0.74828 -0.561208,0.14056 -0.03669,1.91203 A 18.520833,18.520833 0 0 0 7.937499,276.57696 18.520833,18.520833 0 0 0 26.458332,295.09779 18.520833,18.520833 0 0 0 44.979165,276.57696 18.520833,18.520833 0 0 0 27.779182,258.10418 l -0.03566,-1.8743 -0.561208,-0.14056 0.04651,-0.74828 0.701767,-0.42064 -0.09354,-0.60823 c 0,0 5.893506,-2.15155 5.940205,-4.67724 0.06011,-3.2542 -4.185999,-3.64139 -6.608897,-3.64939 -0.616749,0.0175 -1.267505,-10e-4 -1.817979,0 z m 0.125058,1.06712 c 0.281964,-0.003 0.546489,-0.001 0.783932,0.004 1.899531,-0.0415 5.545743,0.10484 5.787244,1.82987 0.327409,2.33861 -1.450041,2.52594 -1.450041,2.52594 l -1.637109,-0.70177 c 0,0 0.654804,-2.33884 -2.385386,-2.24534 -0.225094,0.015 -0.441065,0.007 -0.629417,0 -3.040189,-0.0935 -2.385385,2.24534 -2.385385,2.24534 l -1.63711,0.70177 c 0,0 -1.777449,-0.18733 -1.450041,-2.52594 0.211315,-1.5094 3.029564,-1.81021 5.003313,-1.834 z m 1.313098,14.34073 a 15.200009,15.200009 0 0 1 14.8363,14.23789 h -2.93005 v 1.05833 h 2.95796 a 15.200009,15.200009 0 0 1 -14.86421,15.07505 v -2.90422 h -1.058333 v 2.87941 a 15.200009,15.200009 0 0 1 -14.46785,-15.05024 h 2.826183 v -1.05833 h -2.782776 a 15.200009,15.200009 0 0 1 14.424443,-14.22859 v 2.8515 h 1.058333 z m -2.57452,1.8991 -0.09353,3.55483 1.993159,8.18193 a 1.5874999,1.5874999 0 0 0 -1.242819,1.54771 1.5874999,1.5874999 0 0 0 1.5875,1.5875 1.5874999,1.5874999 0 0 0 1.572514,-1.38286 l 2.544032,0.0749 1.497066,0.8418 2.15129,-1.30948 -1.964222,-1.5906 -1.684134,1.21647 -2.608111,0.0744 a 1.5874999,1.5874999 0 0 0 -1.417484,-1.09502 l -1.025777,-8.24033 z"
       id="path825"
       inkscape:connector-curvature="0" />
  </g>
</svg>
